<svg width="32" height="32" viewBox="0 0 32 32" fill="none" xmlns="http://www.w3.org/2000/svg">
<path d="M28.88 16C28.8811 16.5049 28.7388 16.9997 28.4697 17.4269C28.2007 17.8542 27.8158 18.1962 27.36 18.4133L7.82666 27.6667C7.46915 27.8616 7.07311 27.9754 6.66666 28C6.22188 27.9991 5.7844 27.8869 5.39404 27.6737C5.00368 27.4605 4.67285 27.1531 4.43166 26.7794C4.19048 26.4057 4.04659 25.9776 4.01312 25.534C3.97964 25.0905 4.05764 24.6457 4.24 24.24L7.28 17.3333H14.6667C15.0203 17.3333 15.3594 17.1929 15.6095 16.9428C15.8595 16.6928 16 16.3536 16 16C16 15.6464 15.8595 15.3072 15.6095 15.0572C15.3594 14.8071 15.0203 14.6667 14.6667 14.6667H7.28L4.24 7.82666C4.01972 7.3296 3.95663 6.77709 4.05919 6.24318C4.16176 5.70926 4.42507 5.21945 4.81383 4.83939C5.2026 4.45932 5.69824 4.20717 6.23435 4.11672C6.77045 4.02627 7.32139 4.10185 7.81333 4.33333L27.3467 13.5867C27.805 13.8018 28.1926 14.1431 28.4641 14.5704C28.7356 14.9978 28.8799 15.4937 28.88 16Z" fill="#5284A0"/>
</svg>
